# Blender v2.78 (sub 0) OBJ File: ''
# www.blender.org
o Icosphere_Icosphere.001
v 0.028982 -0.446689 0.002241
v 0.162186 -0.220167 0.101102
v -0.016954 -0.214946 0.153372
v -0.130546 -0.213544 -0.004493
v -0.022775 -0.217734 -0.154689
v 0.157900 -0.221815 -0.089065
v 0.116119 0.221829 0.251841
v -0.178633 0.231654 0.147255
v -0.179645 0.232839 -0.163283
v 0.108711 0.224059 -0.249576
v 0.294966 0.217196 0.009030
v 0.034081 0.472824 -0.003519
v 0.003452 -0.374590 0.086541
v 0.102841 -0.377392 0.057533
v 0.078655 -0.244659 0.145340
v 0.178678 -0.248622 0.006909
v 0.100336 -0.378760 -0.048258
v -0.060062 -0.374257 -0.001331
v -0.088830 -0.240953 0.085099
v -0.000267 -0.376823 -0.084735
v -0.091909 -0.242619 -0.091075
v 0.072612 -0.247350 -0.139439
v 0.219416 -0.026123 0.068057
v 0.217014 -0.026388 -0.053703
v 0.034104 -0.020262 0.198018
v 0.149151 -0.023797 0.164459
v -0.154895 -0.015443 0.055290
v -0.082676 -0.017063 0.156272
v -0.086916 -0.018044 -0.164063
v -0.156237 -0.015816 -0.067652
v 0.143141 -0.024631 -0.155919
v 0.027598 -0.021443 -0.197993
v 0.231353 0.247337 0.149291
v -0.040864 0.256240 0.228641
v -0.209595 0.262105 -0.009145
v -0.045129 0.258341 -0.237220
v 0.226905 0.249081 -0.137788
v 0.080678 0.392258 0.142328
v 0.183629 0.389947 0.002979
v -0.087277 0.398703 0.082001
v -0.087603 0.400385 -0.095748
v 0.078619 0.395131 -0.144903
vt 0.0000 0.0000
vt 1.0000 0.0000
vt 1.0000 1.0000
vt 0.0000 0.0000
vt 1.0000 1.0000
vt 1.0000 0.0000
vt 1.0000 1.0000
vt 1.0000 0.0000
vt 1.0000 1.0000
vt 1.0000 0.0000
vt 1.0000 1.0000
vt 1.0000 0.0000
vt 1.0000 1.0000
vt 0.0000 0.0000
vt 1.0000 0.0000
vt 1.0000 1.0000
vt 0.0000 0.0000
vt 1.0000 0.0000
vt 1.0000 1.0000
vt 0.0000 0.0000
vt 1.0000 0.0000
vt 1.0000 1.0000
vt 0.0000 0.0000
vt 1.0000 0.0000
vt 1.0000 1.0000
vt 1.0000 0.0000
vt 1.0000 1.0000
vt 1.0000 0.0000
vt 1.0000 1.0000
vt 1.0000 0.0000
vt 1.0000 1.0000
vt 1.0000 0.0000
vt 1.0000 1.0000
vt 1.0000 0.0000
vt 1.0000 1.0000
vt 0.0000 0.0000
vt 1.0000 0.0000
vt 1.0000 1.0000
vt 0.0000 0.0000
vt 1.0000 0.0000
vt 1.0000 1.0000
vt 0.0000 0.0000
vt 1.0000 0.0000
vt 1.0000 1.0000
vt 0.0000 0.0000
vt 1.0000 0.0000
vt 1.0000 1.0000
vt 0.0000 0.0000
vt 1.0000 0.0000
vt 1.0000 1.0000
vt 0.0000 0.0000
vt 1.0000 0.0000
vt 1.0000 1.0000
vt 0.0000 0.0000
vt 1.0000 0.0000
vt 0.0000 0.0000
vt 1.0000 0.0000
vt 0.0000 0.0000
vt 1.0000 0.0000
vt 0.0000 0.0000
vt 1.0000 0.0000
vt 0.0000 0.0000
vt 1.0000 0.0000
vt 0.0000 0.0000
vt 1.0000 0.0000
vt 0.0000 0.0000
vt 1.0000 0.0000
vt 0.0000 0.0000
vt 1.0000 0.0000
vt 0.0000 0.0000
vt 1.0000 0.0000
vt 0.0000 0.0000
vt 1.0000 1.0000
vt 1.0000 1.0000
vt 0.0000 0.0000
vt 0.0000 0.0000
vt 1.0000 1.0000
vt 1.0000 1.0000
vt 0.0000 0.0000
vt 0.0000 0.0000
vt 1.0000 1.0000
vt 1.0000 1.0000
vt 0.0000 0.0000
vt 0.0000 0.0000
vt 1.0000 1.0000
vt 1.0000 1.0000
vt 0.0000 0.0000
vt 0.0000 0.0000
vt 1.0000 1.0000
vt 1.0000 1.0000
vt 0.0000 0.0000
vt 1.0000 0.0000
vt 0.0000 0.0000
vt 1.0000 0.0000
vt 1.0000 0.0000
vt 0.0000 0.0000
vt 1.0000 0.0000
vt 1.0000 0.0000
vt 0.0000 0.0000
vt 1.0000 0.0000
vt 1.0000 0.0000
vt 0.0000 0.0000
vt 1.0000 0.0000
vt 1.0000 0.0000
vt 0.0000 0.0000
vt 1.0000 0.0000
vt 0.0000 0.0000
vt 1.0000 1.0000
vt 1.0000 1.0000
vt 0.0000 0.0000
vt 1.0000 1.0000
vt 1.0000 1.0000
vt 0.0000 0.0000
vt 1.0000 1.0000
vt 1.0000 1.0000
vt 0.0000 0.0000
vt 1.0000 0.0000
vt 0.0000 0.0000
vt 1.0000 0.0000
vt 1.0000 1.0000
vt 1.0000 1.0000
vn 0.1752 -0.7214 0.6700
vn 0.8718 -0.4053 0.2751
vn -0.5831 -0.6961 0.4188
vn -0.5722 -0.7225 -0.3880
vn 0.2236 -0.7218 -0.6550
vn 0.9421 -0.2375 0.2367
vn 0.0115 -0.2264 0.9740
vn -0.9085 -0.2191 0.3560
vn -0.6121 -0.2321 -0.7560
vn 0.5453 -0.2323 -0.8054
vn 0.7991 -0.1359 0.5857
vn -0.3370 -0.1256 0.9331
vn -0.9921 -0.1253 0.0112
vn -0.2852 -0.1361 -0.9488
vn 0.8017 -0.1372 -0.5818
vn 0.4890 0.5413 0.6841
vn -0.4979 0.5380 0.6802
vn -0.7990 0.5431 -0.2584
vn 0.0495 0.5276 -0.8481
vn 0.8146 0.5157 -0.2656
vn 0.4716 0.8270 -0.3059
vn 0.6426 0.6313 -0.4342
vn 0.5327 0.5079 -0.6769
vn -0.1231 0.8529 -0.5074
vn -0.1930 0.6628 -0.7235
vn -0.4814 0.5421 -0.6888
vn -0.5166 0.8562 0.0090
vn -0.7475 0.6642 0.0077
vn -0.7994 0.5400 0.2634
vn -0.1525 0.8437 0.5148
vn -0.2313 0.6602 0.7146
vn -0.0061 0.5397 0.8418
vn 0.4490 0.8351 0.3179
vn 0.6115 0.6570 0.4409
vn 0.8091 0.5304 0.2530
vn 0.8801 -0.1672 -0.4443
vn 0.7918 -0.2042 -0.5757
vn 0.6959 -0.1667 -0.6985
vn -0.1159 -0.1674 -0.9790
vn -0.2836 -0.2051 -0.9367
vn -0.4511 -0.1640 -0.8773
vn -0.9751 -0.1535 -0.1603
vn -0.9816 -0.1908 0.0113
vn -0.9745 -0.1542 0.1629
vn -0.4819 -0.1547 0.8625
vn -0.3350 -0.1930 0.9223
vn -0.1778 -0.1558 0.9717
vn 0.6758 -0.1647 0.7184
vn 0.7883 -0.2066 0.5796
vn 0.8836 -0.1684 0.4369
vn 0.3198 -0.2948 -0.9005
vn 0.3327 -0.1739 -0.9269
vn 0.0820 -0.2347 -0.9686
vn -0.7809 -0.2869 -0.5549
vn -0.8022 -0.1684 -0.5729
vn -0.9156 -0.2253 -0.3329
vn -0.7826 -0.2818 0.5551
vn -0.8041 -0.1599 0.5725
vn -0.6289 -0.2198 0.7458
vn 0.2595 -0.2925 0.9204
vn 0.2712 -0.1686 0.9476
vn 0.5077 -0.2338 0.8292
vn 0.9536 -0.3005 -0.0182
vn 0.9844 -0.1750 -0.0190
vn 0.9346 -0.2342 -0.2678
vn 0.5520 -0.3936 -0.7351
vn 0.2856 -0.5049 -0.8145
vn 0.0224 -0.3998 -0.9163
vn -0.5374 -0.4020 -0.7413
vn -0.7080 -0.5067 -0.4920
vn -0.8819 -0.3919 -0.2619
vn -0.8778 -0.3792 0.2927
vn -0.7098 -0.4846 0.5112
vn -0.5612 -0.3796 0.7355
vn 0.8683 -0.3961 -0.2986
vn 0.8592 -0.5114 -0.0137
vn 0.6869 -0.7267 -0.0069
vn -0.0441 -0.3906 0.9195
vn 0.2281 -0.5079 0.8306
vn 0.5178 -0.4044 0.7539
s off
f 1/1/1 14/2/1 13/3/1
f 2/4/2 14/2/2 16/5/2
f 1/1/3 13/6/3 18/7/3
f 1/1/4 18/8/4 20/9/4
f 1/1/5 20/10/5 17/11/5
f 2/4/6 16/12/6 23/13/6
f 3/14/7 15/15/7 25/16/7
f 4/17/8 19/18/8 27/19/8
f 5/20/9 21/21/9 29/22/9
f 6/23/10 22/24/10 31/25/10
f 2/4/11 23/26/11 26/27/11
f 3/14/12 25/28/12 28/29/12
f 4/17/13 27/30/13 30/31/13
f 5/20/14 29/32/14 32/33/14
f 6/23/15 31/34/15 24/35/15
f 7/36/16 33/37/16 38/38/16
f 8/39/17 34/40/17 40/41/17
f 9/42/18 35/43/18 41/44/18
f 10/45/19 36/46/19 42/47/19
f 11/48/20 37/49/20 39/50/20
f 39/51/21 42/52/21 12/53/21
f 39/51/22 37/49/22 42/47/22
f 37/54/23 10/55/23 42/47/23
f 42/56/24 41/57/24 12/53/24
f 42/56/25 36/46/25 41/44/25
f 36/58/26 9/59/26 41/44/26
f 41/60/27 40/61/27 12/53/27
f 41/60/28 35/43/28 40/41/28
f 35/62/29 8/63/29 40/41/29
f 40/64/30 38/65/30 12/53/30
f 40/64/31 34/40/31 38/38/31
f 34/66/32 7/67/32 38/38/32
f 38/68/33 39/69/33 12/53/33
f 38/68/34 33/37/34 39/50/34
f 33/70/35 11/71/35 39/50/35
f 24/72/36 37/49/36 11/73/36
f 24/72/37 31/34/37 37/74/37
f 31/75/38 10/55/38 37/74/38
f 32/76/39 36/46/39 10/77/39
f 32/76/40 29/32/40 36/78/40
f 29/79/41 9/59/41 36/78/41
f 30/80/42 35/43/42 9/81/42
f 30/80/43 27/30/43 35/82/43
f 27/83/44 8/63/44 35/82/44
f 28/84/45 34/40/45 8/85/45
f 28/84/46 25/28/46 34/86/46
f 25/87/47 7/67/47 34/86/47
f 26/88/48 33/37/48 7/89/48
f 26/88/49 23/26/49 33/90/49
f 23/91/50 11/71/50 33/90/50
f 31/75/51 32/92/51 10/77/51
f 31/75/52 22/24/52 32/33/52
f 22/93/53 5/94/53 32/33/53
f 29/79/54 30/95/54 9/81/54
f 29/79/55 21/21/55 30/31/55
f 21/96/56 4/97/56 30/31/56
f 27/83/57 28/98/57 8/85/57
f 27/83/58 19/18/58 28/29/58
f 19/99/59 3/100/59 28/29/59
f 25/87/60 26/101/60 7/89/60
f 25/87/61 15/15/61 26/27/61
f 15/102/62 2/103/62 26/27/62
f 23/91/63 24/104/63 11/73/63
f 23/91/64 16/12/64 24/35/64
f 16/105/65 6/106/65 24/35/65
f 17/107/66 22/24/66 6/108/66
f 17/107/67 20/10/67 22/109/67
f 20/110/68 5/94/68 22/109/68
f 20/110/69 21/21/69 5/111/69
f 20/110/70 18/8/70 21/112/70
f 18/113/71 4/97/71 21/112/71
f 18/113/72 19/18/72 4/114/72
f 18/113/73 13/6/73 19/115/73
f 13/116/74 3/100/74 19/115/74
f 16/105/75 17/117/75 6/108/75
f 16/105/76 14/2/76 17/11/76
f 14/118/77 1/119/77 17/11/77
f 13/116/78 15/15/78 3/120/78
f 13/116/79 14/2/79 15/121/79
f 14/118/80 2/103/80 15/121/80
