# Blender v2.78 (sub 0) OBJ File: ''
# www.blender.org
o Cube_Cube.001
v -1.420714 -0.132287 -0.308483
v -1.000000 -0.342434 -0.733454
v -1.158945 -0.396862 -0.244485
v 0.378846 -0.088552 -1.038384
v 0.939234 -0.255269 -0.755122
v 0.322377 -0.381043 -0.854057
v 1.170746 -0.085617 0.796773
v 1.158934 -0.396846 0.244481
v 1.422689 -0.127188 0.299350
v -0.417479 -0.132347 1.033094
v -1.000000 -0.342434 0.733454
v -0.333334 -0.396862 0.850034
v 0.384764 -0.484262 -0.309053
v 1.138107 -0.366776 -0.252139
v -0.385653 0.486307 -0.307745
v -0.986250 0.338420 -0.718120
v -1.156069 0.396022 -0.241278
v -1.420714 -0.132287 0.308483
v -1.158945 -0.114145 0.850033
v -1.158945 -0.396862 0.244485
v -0.995829 0.331180 0.721163
v -1.420714 0.132287 0.308483
v -1.158945 0.114145 0.850033
v -1.126353 0.308918 0.148436
v -1.420714 0.132287 -0.308483
v -1.158945 0.114145 -0.850033
v -0.420590 -0.132287 -1.042029
v -1.158945 -0.114145 -0.850033
v -0.325713 -0.334687 -0.866213
v -0.420590 0.132287 -1.042029
v -0.333333 0.396862 -0.850032
v 0.335340 0.192741 -1.001453
v 0.913426 0.403826 -0.692249
v 0.324104 0.403406 -0.845640
v 1.002123 0.038572 -0.823038
v 1.366990 -0.064112 -0.317438
v 1.118910 0.390336 -0.266389
v 1.009910 0.220419 -0.779774
v 1.158945 0.396862 0.244485
v 1.366027 0.171510 -0.282963
v 1.002571 0.342324 0.712255
v 1.420715 0.132289 0.308479
v 0.467790 -0.133121 0.906419
v 1.000192 -0.342115 0.732686
v 0.337156 -0.396935 0.839055
v 0.422212 0.132242 1.034158
v 1.160149 0.117252 0.844465
v -0.332301 0.396818 0.841521
v 0.344144 0.396402 0.760907
v -0.420590 0.132287 1.042029
v 0.386315 -0.486500 0.308483
v -0.386315 -0.486500 0.308483
v -0.386291 -0.486302 -0.308535
v -0.386316 0.486502 0.308485
v 0.386806 0.486479 0.304431
v 0.386315 0.486500 -0.308483
vt 0.5546 0.1584
vt 0.6724 0.1771
vt 0.6533 0.0341
vt 0.7662 0.6790
vt 0.7734 0.4971
vt 0.6827 0.5765
vt 0.6724 0.2118
vt 0.7666 0.1684
vt 0.7669 0.0000
vt 0.1138 0.3441
vt 0.0000 0.3230
vt 0.0225 0.4637
vt 0.1191 0.8416
vt 0.0000 0.8239
vt 0.0164 0.9682
vt 0.4556 0.8343
vt 0.3407 0.8237
vt 0.3698 0.9600
vt 0.5546 0.3388
vt 0.5534 0.4971
vt 0.6533 0.4631
vt 0.6724 0.3201
vt 0.3699 0.4595
vt 0.4573 0.4971
vt 0.4432 0.3388
vt 0.3761 0.2920
vt 0.4432 0.1584
vt 0.3671 0.0386
vt 0.3387 0.1780
vt 0.4573 0.0000
vt 0.8831 0.6517
vt 0.9898 0.6645
vt 0.9659 0.5223
vt 0.8682 0.5262
vt 0.9638 0.9488
vt 0.9898 0.8075
vt 0.8831 0.8174
vt 0.8692 0.9844
vt 0.7724 0.8554
vt 0.6861 0.9896
vt 0.7731 0.9884
vt 0.6739 0.7600
vt 0.8920 0.1876
vt 1.0000 0.2365
vt 0.9732 0.0562
vt 0.8667 0.0025
vt 0.9056 0.4732
vt 0.9922 0.4685
vt 1.0000 0.3511
vt 0.8046 0.4939
vt 0.8964 0.3354
vt 0.7108 0.4760
vt 0.7771 0.3302
vt 0.1130 0.1524
vt 0.1329 0.0000
vt 0.0231 0.0354
vt 0.0001 0.1792
vt 0.3151 0.0346
vt 0.2197 0.0031
vt 0.2269 0.1643
vt 0.3387 0.3226
vt 0.3382 0.1764
vt 0.3099 0.4626
vt 0.2268 0.3449
vt 0.1205 0.4997
vt 0.1191 0.6612
vt 0.1166 0.5042
vt 0.0169 0.5353
vt 0.0002 0.6794
vt 0.3003 0.5314
vt 0.2116 0.4997
vt 0.2286 0.6598
vt 0.3286 0.8181
vt 0.3286 0.6752
vt 0.3003 0.9601
vt 0.2286 0.8401
vt 0.1171 0.9986
vt 0.4483 0.6545
vt 0.4481 0.4971
vt 0.3515 0.5400
vt 0.3387 0.7085
vt 0.6431 0.5172
vt 0.5477 0.5120
vt 0.5611 0.6458
vt 0.6725 0.8019
vt 0.6725 0.6523
vt 0.6478 0.9289
vt 0.5681 0.8247
vt 0.5637 0.9812
vt 0.5534 0.0000
vt 0.6743 0.0508
vt 0.4677 0.9908
vt 0.6725 0.8742
vt 0.6726 0.3396
vt 0.2179 0.4997
vt 0.2040 1.0000
vn 0.9073 0.3663 0.2067
vn 0.4462 0.8884 0.1084
vn 0.3360 0.8139 0.4741
vn -0.1595 0.2055 0.9656
vn -0.0983 0.8211 0.5623
vn -0.4611 0.6443 0.6101
vn -0.6132 0.3323 -0.7167
vn -0.9124 0.3695 -0.1763
vn -0.4621 0.8822 -0.0904
vn 0.1003 0.3192 -0.9424
vn 0.0645 0.8395 -0.5395
vn 0.3485 0.8077 -0.4755
vn -0.0945 0.9893 0.1115
vn -0.4879 0.8475 0.2092
vn 0.0818 -0.9943 0.0682
vn 0.4489 -0.8936 -0.0036
vn 0.3375 -0.8240 0.4552
vn 0.9073 0.3663 -0.2067
vn 0.6094 0.3130 -0.7285
vn 0.4462 0.8883 -0.1084
vn 0.3525 -0.8436 -0.4049
vn 0.6055 -0.3335 -0.7226
vn 0.8703 -0.4576 -0.1820
vn 0.3890 -0.9176 -0.0817
vn 0.9002 -0.3947 0.1841
vn 0.6057 -0.3353 0.7216
vn 0.0973 0.3417 0.9347
vn 0.6116 0.3118 0.7272
vn 0.0488 0.8308 0.5544
vn 0.1153 -0.3072 0.9446
vn 0.0809 -0.8454 0.5279
vn -0.1264 -0.3708 0.9201
vn -0.3764 -0.8132 0.4439
vn -0.0671 -0.8418 0.5357
vn -0.5828 0.0419 0.8115
vn -0.8986 0.2665 0.3486
vn -0.4403 -0.8867 0.1413
vn -0.5882 -0.3838 0.7118
vn -0.4475 -0.8891 -0.0965
vn -0.8726 -0.3996 0.2809
vn -0.3361 -0.8217 -0.4603
vn -0.9160 -0.3553 -0.1861
vn -0.1678 0.3528 -0.9205
vn -0.3731 0.7340 -0.5674
vn -0.1063 0.7617 -0.6391
vn -0.5852 -0.2387 -0.7750
vn -0.1541 -0.1909 -0.9694
vn 0.0620 -0.8531 -0.5180
vn -0.0728 -0.8921 -0.4459
vn 0.1217 -0.3076 -0.9437
vn -0.0651 0.9948 -0.0782
vn 0.0591 0.9947 -0.0839
vn 0.0558 0.9917 0.1163
vn 0.1004 -0.9922 -0.0739
vn -0.0594 -0.9937 -0.0946
vn -0.0525 -0.9965 0.0656
s 1
f 1/1/1 3/2/2 2/3/3
f 4/4/4 6/5/5 5/6/6
f 7/7/7 9/8/8 8/9/9
f 10/10/10 12/11/11 11/12/12
f 13/13/13 14/14/14 5/15/6
f 15/16/15 17/17/16 16/18/17
f 18/19/18 19/20/19 11/21/12
f 1/1/1 18/19/18 20/22/20
f 21/23/21 23/24/22 22/25/23
f 22/25/23 23/24/22 19/20/19
f 24/26/24 22/25/23 25/27/25
f 25/27/25 22/25/23 18/19/18
f 16/28/17 17/29/16 25/27/25
f 26/30/26 25/27/25 1/1/1
f 27/31/27 28/32/28 2/33/3
f 4/4/4 27/31/27 29/34/29
f 16/35/17 26/36/26 30/37/30
f 30/37/30 26/36/26 28/32/28
f 31/38/31 30/37/30 32/39/32
f 32/39/32 30/37/30 27/31/27
f 33/40/33 34/41/34 32/39/32
f 32/39/32 4/4/4 35/42/35
f 36/43/36 35/44/35 5/45/6
f 9/8/8 36/43/36 14/46/14
f 37/47/37 33/48/33 38/49/38
f 38/49/38 35/44/35 36/43/36
f 39/50/39 37/47/37 40/51/40
f 40/51/40 36/43/36 9/8/8
f 41/52/41 39/50/39 42/53/42
f 42/53/42 9/8/8 7/7/7
f 43/54/43 7/55/7 44/56/44
f 10/10/10 43/54/43 45/57/45
f 41/58/41 47/59/46 46/60/47
f 47/59/46 7/55/7 43/54/43
f 48/61/48 49/62/49 46/60/47
f 46/60/47 43/54/43 10/10/10
f 21/63/21 48/61/48 50/64/50
f 50/64/50 10/10/10 19/65/19
f 51/66/51 45/67/45 44/68/44
f 51/66/51 8/69/9 14/14/14
f 11/70/12 12/71/11 52/72/52
f 52/72/52 12/71/11 45/67/45
f 3/73/2 20/74/20 52/72/52
f 52/72/52 51/66/51 13/13/13
f 2/75/3 3/73/2 53/76/53
f 53/76/53 13/13/13 6/77/5
f 54/78/54 48/79/48 21/80/21
f 15/16/15 54/78/54 24/81/24
f 41/82/41 49/83/49 55/84/55
f 49/83/49 48/79/48 54/78/54
f 37/85/37 39/86/39 55/84/55
f 55/84/55 54/78/54 15/16/15
f 33/87/33 37/85/37 56/88/56
f 34/89/34 56/88/56 15/16/15
f 1/1/1 2/3/3 28/90/28
f 4/4/4 5/6/6 35/42/35
f 7/7/7 8/9/9 44/91/44
f 10/10/10 11/12/12 19/65/19
f 13/13/13 5/15/6 6/77/5
f 15/16/15 16/18/17 31/92/31
f 18/19/18 11/21/12 20/22/20
f 1/1/1 20/22/20 3/2/2
f 21/23/21 22/25/23 24/26/24
f 22/25/23 19/20/19 18/19/18
f 24/26/24 25/27/25 17/29/16
f 25/27/25 18/19/18 1/1/1
f 16/28/17 25/27/25 26/30/26
f 26/30/26 1/1/1 28/90/28
f 27/31/27 2/33/3 29/34/29
f 4/4/4 29/34/29 6/5/5
f 16/35/17 30/37/30 31/38/31
f 30/37/30 28/32/28 27/31/27
f 31/38/31 32/39/32 34/41/34
f 32/39/32 27/31/27 4/4/4
f 33/40/33 32/39/32 38/93/38
f 32/39/32 35/42/35 38/93/38
f 36/43/36 5/45/6 14/46/14
f 9/8/8 14/46/14 8/9/9
f 37/47/37 38/49/38 40/51/40
f 38/49/38 36/43/36 40/51/40
f 39/50/39 40/51/40 42/53/42
f 40/51/40 9/8/8 42/53/42
f 41/52/41 42/53/42 47/94/46
f 42/53/42 7/7/7 47/94/46
f 43/54/43 44/56/44 45/57/45
f 10/10/10 45/57/45 12/11/11
f 41/58/41 46/60/47 49/62/49
f 47/59/46 43/54/43 46/60/47
f 48/61/48 46/60/47 50/64/50
f 46/60/47 10/10/10 50/64/50
f 21/63/21 50/64/50 23/95/22
f 50/64/50 19/65/19 23/95/22
f 51/66/51 44/68/44 8/69/9
f 51/66/51 14/14/14 13/13/13
f 11/70/12 52/72/52 20/74/20
f 52/72/52 45/67/45 51/66/51
f 3/73/2 52/72/52 53/76/53
f 52/72/52 13/13/13 53/76/53
f 2/75/3 53/76/53 29/96/29
f 53/76/53 6/77/5 29/96/29
f 54/78/54 21/80/21 24/81/24
f 15/16/15 24/81/24 17/17/16
f 41/82/41 55/84/55 39/86/39
f 49/83/49 54/78/54 55/84/55
f 37/85/37 55/84/55 56/88/56
f 55/84/55 15/16/15 56/88/56
f 33/87/33 56/88/56 34/89/34
f 34/89/34 15/16/15 31/92/31
