# Blender v2.78 (sub 0) OBJ File: ''
# www.blender.org
o Cube.001_Cube.002
v -0.929238 -0.265478 -0.665414
v -0.895687 -0.437754 -0.311924
v -1.161755 -0.266466 -0.347486
v 0.439741 -0.258018 -0.720539
v 0.720512 -0.361498 -0.503748
v 0.421205 -0.421795 -0.584053
v 0.795044 -0.206910 0.611553
v 0.849539 -0.409912 0.311784
v 1.004838 -0.218763 0.342033
v -0.460353 -0.223265 0.781852
v -0.755186 -0.359440 0.578288
v -0.401331 -0.414712 0.666191
v 0.478293 -0.516474 -0.354195
v 0.880585 -0.429545 -0.305198
v -0.553311 0.406360 -0.343332
v -0.887658 0.307954 -0.544029
v -1.010640 0.372320 -0.259910
v -1.184675 -0.257621 0.021656
v -0.874278 -0.415778 0.306949
v -1.079410 -0.228766 0.371603
v -1.269857 0.191509 0.052102
v -1.139250 -0.006041 0.388180
v -1.109070 0.214363 0.381859
v -1.006023 0.132586 -0.603314
v -1.260055 -0.049620 -0.339129
v -1.264127 0.166434 -0.302657
v 0.014689 -0.297237 -0.809310
v -0.403967 -0.461813 -0.652687
v -0.459020 -0.294368 -0.776852
v -0.484667 0.143511 -0.825852
v -0.001274 -0.080189 -0.839967
v -0.497207 -0.083966 -0.792153
v 0.735756 0.181972 -0.531824
v 0.428715 -0.049264 -0.726238
v 0.399079 0.149277 -0.747841
v 1.089323 -0.235774 -0.005421
v 1.089592 -0.239170 -0.362767
v 1.030151 0.249203 -0.299134
v 1.131082 0.008231 0.010992
v 1.088290 0.007310 -0.364707
v 0.850954 0.181954 0.650520
v 1.076588 0.004549 0.374029
v 1.052177 0.218339 0.377027
v -0.005157 -0.228554 0.793399
v 0.414402 -0.395656 0.597949
v 0.443483 -0.219574 0.745045
v 0.481768 0.219952 0.817143
v 0.004937 -0.006823 0.832902
v 0.492304 0.000744 0.843421
v -0.874485 0.189876 0.668989
v -0.484793 -0.001656 0.821500
v -0.474429 0.218462 0.790353
v 0.507931 -0.551690 0.000097
v 0.475468 -0.510416 0.369457
v -0.474987 -0.509349 0.368467
v -0.000709 -0.558250 -0.000574
v 0.000000 -0.532599 0.381246
v 0.007227 -0.546446 -0.371897
v -0.466684 -0.530564 -0.380321
v -0.548670 0.451187 0.017214
v -0.907016 0.366387 0.326819
v -0.452456 0.425823 0.339137
v 0.485298 0.445547 0.047772
v 0.048475 0.446621 0.362260
v 0.468603 0.406907 0.349064
v 0.395021 0.346239 -0.689211
v 0.007994 0.380541 -0.402141
v 0.440350 0.381734 -0.343874
v -0.914472 -0.435215 0.002059
v -1.283385 -0.035600 0.040466
v -0.982598 -0.073843 -0.651011
v 0.019600 -0.468687 -0.650986
v 0.793356 -0.209018 -0.550843
v 0.908040 -0.432758 0.000447
v 0.899912 0.000139 0.689798
v -0.005090 -0.417710 0.649819
v -0.868883 -0.192031 0.664003
v -1.014250 0.391893 0.037883
v 0.031585 0.435604 -0.001520
v -0.443340 0.336323 -0.709220
v -0.902233 -0.000006 0.690910
v -0.753262 0.340074 0.573292
v -0.771735 -0.413653 -0.597939
v 0.007308 0.147436 -0.903040
v 0.010683 0.351883 -0.760201
v 0.662788 0.310309 -0.508850
v 0.808904 -0.003009 -0.582106
v 0.819855 0.363320 -0.259817
v 0.885589 0.391411 0.063802
v 1.086908 0.249199 0.060989
v 0.804465 0.326712 0.331912
v 0.702562 -0.357657 0.533178
v 0.695966 0.277865 0.536891
v 0.413108 0.344483 0.631530
v 0.008816 0.222081 0.806315
v -0.397740 0.379957 0.647407
v 0.016975 0.399672 0.685487
v -0.496929 -0.535148 -0.002803
vt 0.4380 0.9608
vt 0.4283 0.8530
vt 0.3610 0.8572
vt 0.4619 0.3098
vt 0.3948 0.3241
vt 0.4187 0.4030
vt 0.7179 0.1198
vt 0.7909 0.1192
vt 0.7928 0.0142
vt 0.7585 0.8517
vt 0.6852 0.8469
vt 0.7141 0.9340
vt 0.3538 0.3687
vt 0.3892 0.4665
vt 0.1099 0.4265
vt 0.0216 0.4339
vt 0.0643 0.5163
vt 0.4222 0.7330
vt 0.4251 0.6210
vt 0.3538 0.6570
vt 0.5984 0.6962
vt 0.5997 0.5924
vt 0.5123 0.6019
vt 0.5932 0.9169
vt 0.5976 0.8121
vt 0.5133 0.8360
vt 0.4460 0.2016
vt 0.4446 0.0994
vt 0.3765 0.1286
vt 0.6188 0.0885
vt 0.5281 0.0895
vt 0.5324 0.1945
vt 0.6346 0.4046
vt 0.6236 0.2984
vt 0.5447 0.3073
vt 0.8782 0.1107
vt 0.9647 0.1059
vt 0.9433 0.0000
vt 0.9462 0.3571
vt 0.9647 0.2335
vt 0.8753 0.2387
vt 0.7098 0.3236
vt 0.7835 0.3476
vt 0.7855 0.2378
vt 0.7499 0.7387
vt 0.7487 0.6278
vt 0.6835 0.6448
vt 0.9195 0.5992
vt 0.8323 0.6050
vt 0.8362 0.7265
vt 0.9298 0.9397
vt 0.9325 0.8371
vt 0.8451 0.8480
vt 0.1661 0.6355
vt 0.2580 0.6502
vt 0.2517 0.5557
vt 0.2478 0.8867
vt 0.2550 0.7688
vt 0.1603 0.7621
vt 0.0000 0.8503
vt 0.0634 0.8711
vt 0.0698 0.7533
vt 0.0853 0.3120
vt 0.0809 0.2061
vt 0.0000 0.2441
vt 0.2709 0.2303
vt 0.2476 0.1392
vt 0.1699 0.1629
vt 0.3066 0.4702
vt 0.2905 0.3580
vt 0.2161 0.4065
vt 0.3538 0.7554
vt 0.5089 0.7123
vt 0.5130 0.9443
vt 0.3755 0.2241
vt 0.4802 0.4134
vt 0.8704 0.0019
vt 0.7025 0.2316
vt 0.6791 0.7489
vt 0.7793 0.9539
vt 0.1750 0.5355
vt 0.0999 0.5368
vt 0.0803 0.6363
vt 0.0270 0.6460
vt 0.0002 0.3406
vt 0.1921 0.2779
vt 0.1560 0.5355
vt 0.4330 0.5296
vt 0.3697 0.5692
vt 0.5080 0.5095
vt 0.5837 0.5066
vt 0.6621 0.6063
vt 0.6461 0.5319
vt 0.6791 0.6956
vt 0.6791 0.7927
vt 0.4522 0.0093
vt 0.3931 0.0536
vt 0.5277 0.0000
vt 0.6087 0.0022
vt 0.6615 0.8907
vt 0.6058 1.0000
vt 0.6935 0.1149
vt 0.6237 0.1885
vt 0.7025 0.2100
vt 0.6848 0.3918
vt 0.7007 0.3065
vt 0.5642 0.5066
vt 0.5624 0.4133
vt 0.7025 0.4622
vt 0.8528 0.4284
vt 0.9287 0.4087
vt 0.8612 0.3623
vt 0.3107 0.1242
vt 0.3538 0.0972
vt 0.2989 0.0276
vt 0.7524 0.5425
vt 0.6962 0.5729
vt 0.8305 0.5066
vt 0.9038 0.5121
vt 0.2774 0.0700
vt 0.2199 0.0000
vt 0.9743 0.6145
vt 0.9270 0.7167
vt 0.9988 0.8140
vt 1.0000 0.7096
vt 0.9898 0.9052
vt 0.3179 0.6692
vt 0.3065 0.5962
vt 0.3254 0.7746
vt 0.3254 0.8736
vt 0.3023 0.9599
vt 0.2323 0.9847
vt 0.1555 0.8855
vt 0.0794 0.9788
vt 0.1563 0.9892
vt 0.0115 0.9427
vt 0.0701 0.1081
vt 0.0112 0.1576
vt 0.1425 0.0664
vt 0.2188 0.0576
vt 0.3538 0.3060
vt 0.3431 0.1995
vt 0.3431 0.3967
vt 0.3785 0.9509
vt 0.7337 0.0376
vt 0.8548 0.9539
vt 0.0046 0.7449
vt 0.2417 0.5190
vt 0.6791 0.9526
vt 0.4665 0.5062
vt 0.6588 0.5036
vt 0.7850 0.3941
vn 0.5194 0.4174 0.7457
vn 0.7428 0.6011 0.2949
vn 0.3993 0.9059 0.1408
vn -0.3152 0.3250 0.8916
vn -0.2206 0.7908 0.5709
vn -0.4146 0.6510 0.6359
vn -0.4815 0.5529 -0.6801
vn -0.8033 0.4848 -0.3459
vn -0.5208 0.7970 -0.3057
vn 0.1618 0.3753 -0.9127
vn 0.1237 0.7735 -0.6216
vn 0.3674 0.7575 -0.5396
vn -0.1566 0.9511 0.2661
vn -0.4657 0.8285 0.3110
vn 0.0540 -0.9832 0.1743
vn 0.3966 -0.8894 0.2272
vn 0.3874 -0.7607 0.5209
vn 0.7705 0.6285 -0.1063
vn 0.7430 0.5181 -0.4237
vn 0.4245 0.8741 -0.2360
vn 0.8822 -0.4440 -0.1570
vn 0.7326 -0.4978 -0.4642
vn 0.8580 0.0676 -0.5092
vn 0.5798 -0.3561 0.7328
vn 0.8467 -0.4178 0.3295
vn 0.9137 0.1624 0.3725
vn -0.0977 0.4075 0.9080
vn 0.1518 0.3737 0.9150
vn 0.0991 0.8300 0.5490
vn 0.2340 -0.2171 0.9477
vn 0.1855 0.1112 0.9763
vn -0.0918 0.1745 0.9804
vn -0.4931 -0.4230 0.7602
vn -0.3999 -0.1314 0.9071
vn -0.3505 0.0145 0.9365
vn -0.8990 0.4300 -0.0836
vn -0.8159 0.3745 0.4405
vn -0.6917 -0.5878 0.4195
vn -0.8536 -0.1376 0.5024
vn -0.9998 0.0015 -0.0205
vn -0.5130 -0.5775 -0.6350
vn -0.7677 -0.5204 -0.3739
vn -0.9371 0.0920 -0.3368
vn -0.0527 0.3964 -0.9166
vn -0.1756 0.5188 -0.8366
vn -0.1533 0.7734 -0.6151
vn -0.2042 -0.5275 -0.8246
vn -0.1929 0.1454 -0.9704
vn 0.0008 0.0495 -0.9988
vn 0.5084 -0.4376 -0.7416
vn 0.1607 -0.4293 -0.8887
vn 0.1658 0.0209 -0.9859
vn -0.1458 0.9892 -0.0147
vn -0.1570 0.9435 -0.2917
vn 0.1520 0.9669 -0.2050
vn -0.0160 0.9724 -0.2329
vn 0.0031 0.9998 -0.0179
vn 0.1230 0.9823 0.1413
vn -0.0345 0.9865 0.1598
vn 0.0529 -0.9986 0.0065
vn 0.0748 -0.9902 -0.1178
vn 0.3404 -0.9018 -0.2663
vn -0.0886 -0.9960 0.0097
vn -0.1819 -0.9623 -0.2021
vn -0.0198 -0.9960 -0.0873
vn -0.2891 -0.7299 0.6195
vn -0.0718 -0.9848 0.1578
vn -0.0129 -0.9926 0.1208
vn 0.4009 0.9149 -0.0474
vn 0.9710 0.1767 -0.1613
vn 0.5761 0.0257 0.8170
vn -0.0899 0.8462 0.5253
vn -0.4905 0.3050 0.8163
vn -0.5450 0.8365 -0.0571
vn -0.6450 0.0826 -0.7597
vn -0.0676 0.7849 -0.6159
vn 0.5210 0.4076 -0.7499
vn 0.3955 -0.9158 -0.0695
vn -0.0007 -0.9969 0.0785
vn 0.1511 -0.8194 0.5529
vn 0.5720 0.0210 -0.8200
vn 0.3070 -0.8392 -0.4488
vn 0.3278 0.8093 0.4874
vn -0.1077 -0.1529 0.9824
vn -0.0482 -0.8393 0.5415
vn -0.4442 -0.7224 0.5299
vn -0.4867 -0.1219 0.8650
vn -0.2931 -0.9050 0.3082
vn -0.3461 -0.9359 -0.0659
vn -0.8489 -0.5282 -0.0192
vn -0.2605 -0.9167 -0.3030
vn -0.3723 0.7250 -0.5795
vn -0.2792 -0.8917 -0.3564
vn -0.1870 -0.8950 -0.4049
vn 0.0029 -0.3867 -0.9222
vn 0.1102 -0.8722 -0.4766
vn -0.0465 -0.8395 -0.5414
vn 0.1422 0.9894 -0.0304
s 1
f 1/1/1 3/2/2 2/3/3
f 4/4/4 6/5/5 5/6/6
f 7/7/7 9/8/8 8/9/9
f 10/10/10 12/11/11 11/12/12
f 13/13/13 14/14/14 5/6/6
f 15/15/15 17/16/16 16/17/17
f 18/18/18 20/19/19 19/20/20
f 21/21/21 23/22/22 22/23/23
f 24/24/24 26/25/25 25/26/26
f 27/27/27 29/28/28 28/29/29
f 30/30/30 32/31/31 31/32/32
f 33/33/33 35/34/34 34/35/35
f 36/36/36 37/37/37 14/38/14
f 38/39/38 40/40/39 39/41/40
f 41/42/41 43/43/42 42/44/43
f 44/45/44 46/46/45 45/47/46
f 47/48/47 49/49/48 48/50/49
f 50/51/50 52/52/51 51/53/52
f 53/54/53 54/55/54 8/56/9
f 55/57/55 57/58/56 56/59/57
f 28/60/29 59/61/58 58/62/59
f 60/63/60 62/64/61 61/65/62
f 63/66/63 65/67/64 64/68/65
f 66/69/66 68/70/67 67/71/68
f 3/2/2 18/18/18 69/72/69
f 25/26/26 70/73/70 18/18/18
f 71/74/71 25/26/26 3/2/2
f 4/4/4 27/27/27 72/75/72
f 34/35/35 31/32/32 27/27/27
f 34/35/35 4/4/4 73/76/73
f 9/8/8 36/36/36 74/77/74
f 39/41/40 36/36/36 9/8/8
f 75/78/75 42/44/43 9/8/8
f 44/45/44 76/79/76 12/11/11
f 48/50/49 44/45/44 10/10/10
f 51/53/52 10/10/10 77/80/77
f 53/54/53 74/81/74 14/82/14
f 56/59/57 53/54/53 13/83/13
f 58/62/59 13/83/13 6/84/5
f 60/63/60 78/85/78 17/16/16
f 79/86/79 60/63/60 15/15/15
f 67/71/68 15/15/15 80/87/80
f 20/19/19 77/88/77 11/89/12
f 22/23/23 81/90/81 77/88/77
f 70/73/70 22/23/23 20/19/19
f 23/22/22 50/91/50 81/90/81
f 61/92/62 82/93/82 50/91/50
f 78/94/78 61/92/62 23/22/22
f 26/25/25 21/21/21 70/73/70
f 17/95/16 78/94/78 21/21/21
f 17/95/16 26/25/25 24/24/24
f 29/28/28 1/96/1 83/97/83
f 32/31/31 71/98/71 1/96/1
f 31/32/32 32/31/31 29/28/28
f 30/30/30 24/99/24 71/98/71
f 16/100/17 24/24/24 30/101/30
f 80/102/80 30/30/30 84/103/84
f 35/34/34 84/103/84 31/32/32
f 85/104/85 84/103/84 35/34/34
f 86/105/86 66/106/66 35/34/34
f 73/76/73 5/6/6 14/14/14
f 40/107/39 87/108/87 73/76/73
f 40/40/39 37/37/37 36/36/36
f 33/33/33 87/108/87 40/107/39
f 88/109/88 86/105/86 33/33/33
f 89/110/89 88/111/88 38/39/38
f 90/112/90 39/41/40 42/44/43
f 89/110/89 90/112/90 43/43/42
f 91/113/91 43/114/42 41/115/41
f 46/46/45 7/116/7 92/117/92
f 49/49/48 75/118/75 7/116/7
f 48/50/49 49/49/48 46/46/45
f 41/119/41 75/118/75 49/49/48
f 93/120/93 41/115/41 47/121/47
f 94/122/94 47/48/47 95/123/95
f 52/52/51 95/123/95 48/50/49
f 96/124/96 97/125/97 95/123/95
f 82/126/82 96/124/96 52/52/51
f 54/55/54 45/127/46 92/128/92
f 57/58/56 76/129/76 45/127/46
f 56/59/57 57/58/56 54/55/54
f 12/130/11 76/129/76 57/58/56
f 11/131/12 12/130/11 55/57/55
f 19/132/20 55/57/55 98/133/98
f 59/61/58 98/133/98 56/59/57
f 2/134/3 69/135/69 98/133/98
f 83/136/83 2/134/3 59/61/58
f 62/64/61 96/137/96 82/138/82
f 64/68/65 97/139/97 96/137/96
f 79/86/79 64/68/65 62/64/61
f 94/140/94 97/139/97 64/68/65
f 93/120/93 94/140/94 65/67/64
f 91/113/91 65/67/64 63/66/63
f 68/70/67 63/66/63 79/86/79
f 88/141/88 89/142/89 63/66/63
f 86/143/86 88/141/88 68/70/67
f 1/1/1 2/3/3 83/144/83
f 4/4/4 5/6/6 73/76/73
f 7/7/7 8/9/9 92/145/92
f 10/10/10 11/12/12 77/80/77
f 13/13/13 5/6/6 6/5/5
f 15/15/15 16/17/17 80/87/80
f 18/18/18 19/20/20 69/72/69
f 21/21/21 22/23/23 70/73/70
f 24/24/24 25/26/26 71/74/71
f 27/27/27 28/29/29 72/75/72
f 30/30/30 31/32/32 84/103/84
f 33/33/33 34/35/35 87/108/87
f 36/36/36 14/38/14 74/77/74
f 38/39/38 39/41/40 90/112/90
f 41/42/41 42/44/43 75/78/75
f 44/45/44 45/47/46 76/79/76
f 47/48/47 48/50/49 95/123/95
f 50/51/50 51/53/52 81/146/81
f 53/54/53 8/56/9 74/81/74
f 55/57/55 56/59/57 98/133/98
f 28/60/29 58/62/59 72/147/72
f 60/63/60 61/65/62 78/85/78
f 63/66/63 64/68/65 79/86/79
f 66/69/66 67/71/68 85/148/85
f 3/2/2 69/72/69 2/3/3
f 25/26/26 18/18/18 3/2/2
f 71/74/71 3/2/2 1/1/1
f 4/4/4 72/75/72 6/5/5
f 34/35/35 27/27/27 4/4/4
f 34/35/35 73/76/73 87/108/87
f 9/8/8 74/77/74 8/9/9
f 39/41/40 9/8/8 42/44/43
f 75/78/75 9/8/8 7/7/7
f 44/45/44 12/11/11 10/10/10
f 48/50/49 10/10/10 51/53/52
f 51/53/52 77/80/77 81/146/81
f 53/54/53 14/82/14 13/83/13
f 56/59/57 13/83/13 58/62/59
f 58/62/59 6/84/5 72/147/72
f 60/63/60 17/16/16 15/15/15
f 79/86/79 15/15/15 67/71/68
f 67/71/68 80/87/80 85/148/85
f 20/19/19 11/89/12 19/20/20
f 22/23/23 77/88/77 20/19/19
f 70/73/70 20/19/19 18/18/18
f 23/22/22 81/90/81 22/23/23
f 61/92/62 50/91/50 23/22/22
f 78/94/78 23/22/22 21/21/21
f 26/25/25 70/73/70 25/26/26
f 17/95/16 21/21/21 26/25/25
f 17/95/16 24/24/24 16/100/17
f 29/28/28 83/97/83 28/29/29
f 32/31/31 1/96/1 29/28/28
f 31/32/32 29/28/28 27/27/27
f 30/30/30 71/98/71 32/31/31
f 16/100/17 30/101/30 80/149/80
f 80/102/80 84/103/84 85/104/85
f 35/34/34 31/32/32 34/35/35
f 85/104/85 35/34/34 66/106/66
f 86/105/86 35/34/34 33/33/33
f 73/76/73 14/14/14 37/150/37
f 40/107/39 73/76/73 37/150/37
f 40/40/39 36/36/36 39/41/40
f 33/33/33 40/107/39 38/151/38
f 88/109/88 33/33/33 38/151/38
f 89/110/89 38/39/38 90/112/90
f 90/112/90 42/44/43 43/43/42
f 89/110/89 43/43/42 91/152/91
f 91/113/91 41/115/41 93/120/93
f 46/46/45 92/117/92 45/47/46
f 49/49/48 7/116/7 46/46/45
f 48/50/49 46/46/45 44/45/44
f 41/119/41 49/49/48 47/48/47
f 93/120/93 47/121/47 94/140/94
f 94/122/94 95/123/95 97/125/97
f 52/52/51 48/50/49 51/53/52
f 96/124/96 95/123/95 52/52/51
f 82/126/82 52/52/51 50/51/50
f 54/55/54 92/128/92 8/56/9
f 57/58/56 45/127/46 54/55/54
f 56/59/57 54/55/54 53/54/53
f 12/130/11 57/58/56 55/57/55
f 11/131/12 55/57/55 19/132/20
f 19/132/20 98/133/98 69/135/69
f 59/61/58 56/59/57 58/62/59
f 2/134/3 98/133/98 59/61/58
f 83/136/83 59/61/58 28/60/29
f 62/64/61 82/138/82 61/65/62
f 64/68/65 96/137/96 62/64/61
f 79/86/79 62/64/61 60/63/60
f 94/140/94 64/68/65 65/67/64
f 93/120/93 65/67/64 91/113/91
f 91/113/91 63/66/63 89/142/89
f 68/70/67 79/86/79 67/71/68
f 88/141/88 63/66/63 68/70/67
f 86/143/86 68/70/67 66/69/66
