# Blender v2.78 (sub 0) OBJ File: ''
# www.blender.org
o Icosphere.002
v 0.002077 -0.595903 -0.009844
v 0.486691 -0.485347 0.293648
v -0.201312 -0.560226 0.519947
v 0.955462 -0.311032 0.562368
v 1.042071 -0.322810 0.003286
v -0.654834 -0.535109 -0.007386
v -0.202319 -0.481605 -0.544064
v 0.482085 -0.518904 -0.308681
v 1.298668 -0.000144 0.340107
v -0.378429 -0.341208 0.937986
v 0.356356 -0.395826 0.887641
v -0.000055 -0.000038 1.103187
v -1.154746 -0.250300 -0.092947
v -0.940995 -0.399654 0.550301
v -1.267079 0.045660 0.294044
v -0.364410 -0.197158 -0.900109
v -0.910325 -0.306857 -0.596282
v -0.801380 0.010213 -0.894345
v 0.830052 -0.256905 -0.494221
v 0.357897 -0.369008 -0.894369
v 0.721312 0.009360 -0.783969
v 0.791559 0.032466 0.829756
v -0.804793 -0.000000 0.892079
v -1.215080 0.113293 -0.456601
v 0.019228 -0.009065 -1.111698
v 1.235443 0.024966 -0.210025
v 0.323374 0.276461 0.921082
v 0.981926 0.275317 0.460722
v 0.206291 0.625924 0.561781
v -0.996866 0.347606 0.580393
v -0.497002 0.544606 0.908380
v -0.584868 0.651649 0.341023
v -0.986581 0.346643 -0.585260
v -1.158864 0.408707 -0.007767
v -0.582350 0.649012 -0.340739
v 0.297533 0.243150 -0.937536
v -0.362458 0.391183 -0.898287
v 0.166214 0.557822 -0.454536
v 1.173404 0.328742 0.013177
v 0.833392 0.324070 -0.442863
v 0.584648 0.515382 0.003108
v -0.003962 0.754903 0.000286
vt 0.2080 0.2459
vt 0.1219 0.1360
vt 0.1067 0.3093
vt 0.0102 0.3800
vt 0.1100 0.4729
vt 0.2567 0.1213
vt 0.3201 0.2890
vt 0.2230 0.3883
vt 0.0103 0.5053
vt 0.8194 0.3397
vt 0.7047 0.2583
vt 0.7229 0.4340
vt 0.4806 0.6120
vt 0.5628 0.4995
vt 0.4104 0.4838
vt 0.4999 0.9044
vt 0.5747 0.8464
vt 0.4717 0.7653
vt 0.2041 0.5966
vt 0.2037 0.7246
vt 0.3219 0.6493
vt 0.5178 0.0000
vt 0.5026 0.1447
vt 0.6250 0.0639
vt 0.8358 0.1685
vt 0.6042 0.6876
vt 0.5538 1.0000
vt 0.0771 0.6190
vt 0.4725 0.2892
vt 0.5607 0.4210
vt 0.6092 0.2013
vt 0.9988 0.6602
vt 0.8919 0.7407
vt 1.0000 0.8279
vt 0.7871 0.4838
vt 0.7686 0.6366
vt 0.8974 0.5500
vt 0.2230 0.8656
vt 0.1177 0.9429
vt 0.2565 0.9877
vt 0.0000 0.7080
vt 0.0258 0.8393
vt 0.0925 0.7866
vt 0.0461 0.0627
vt 0.0000 0.2097
vt 0.2180 0.5053
vt 0.3778 0.6566
vt 0.1671 0.0000
vt 0.3982 0.8419
vt 0.3778 0.1718
vt 0.3368 0.4574
vt 0.4283 0.9940
vt 0.0053 0.5538
vt 0.1317 0.5053
vt 0.3778 0.2344
vt 0.3974 0.0484
vt 0.9345 0.0847
vt 0.8336 0.0105
vt 0.9345 0.2907
vt 0.6735 0.7434
vt 0.3181 0.8286
vt 0.7047 0.1899
vt 0.7116 0.0000
vt 0.4271 0.4838
vt 0.6800 0.5807
vt 1.0000 0.5250
vt 0.6800 0.8953
vt 0.6438 0.4838
vt 0.6715 0.3275
vt 0.7764 0.8073
vt 0.8770 0.9124
vt 0.7034 0.7402
vt 0.6800 0.5540
vt 0.0411 0.9877
vn -0.0360 0.9986 0.0392
vn 0.0407 0.9700 -0.2397
vn -0.2305 0.9662 -0.1153
vn -0.5625 0.6897 -0.4561
vn -0.6051 0.7892 0.1047
vn 0.2759 0.9584 0.0731
vn 0.1102 0.9243 0.3655
vn -0.2612 0.9503 0.1691
vn -0.9456 0.0436 -0.3225
vn 0.2027 0.6168 -0.7605
vn -0.0581 0.0129 -0.9982
vn -0.2464 0.7013 -0.6689
vn 0.7838 0.6132 0.0978
vn 0.9620 0.0276 -0.2716
vn 0.5841 0.7087 -0.3957
vn 0.2083 0.6514 0.7296
vn 0.4916 0.0811 0.8670
vn 0.5192 0.7050 0.4832
vn -0.6116 0.6321 0.4759
vn -0.6374 -0.0500 0.7689
vn -0.2658 0.6763 0.6870
vn -0.5372 -0.1312 -0.8332
vn 0.5575 0.0762 -0.8266
vn 0.9123 -0.0601 0.4050
vn -0.0326 0.0566 0.9979
vn -0.9040 0.0563 0.4238
vn -0.3087 -0.5306 -0.7894
vn -0.2542 -0.8983 -0.3583
vn -0.5313 -0.7161 -0.4528
vn 0.7009 -0.5288 -0.4786
vn 0.2800 -0.9486 -0.1471
vn 0.2377 -0.6835 -0.6902
vn 0.5775 -0.6189 0.5324
vn 0.2327 -0.9359 0.2644
vn 0.7487 -0.6629 0.0024
vn -0.3195 -0.5649 0.7608
vn -0.2166 -0.8992 0.3802
vn 0.1339 -0.6682 0.7318
vn -0.6867 -0.7239 0.0662
vn -0.3576 -0.9324 0.0522
vn -0.5046 -0.7208 0.4751
vn -0.1193 -0.9905 0.0683
s 1
f 1/1/1 3/2/2 2/3/3
f 4/4/4 5/5/5 2/3/3
f 1/1/1 6/6/6 3/2/2
f 1/1/1 7/7/7 6/6/6
f 1/1/1 8/8/8 7/7/7
f 4/4/4 9/9/9 5/5/5
f 10/10/10 12/11/11 11/12/12
f 13/13/13 15/14/14 14/15/15
f 16/16/16 18/17/17 17/18/18
f 19/19/19 21/20/20 20/21/21
f 4/22/4 22/23/22 9/24/9
f 10/10/10 23/25/23 12/11/11
f 13/13/13 24/26/24 15/14/14
f 16/16/16 25/27/25 18/17/17
f 19/19/19 26/28/26 21/20/20
f 27/29/27 29/30/28 28/31/29
f 30/32/30 32/33/31 31/34/32
f 33/35/33 35/36/34 34/37/35
f 36/38/36 38/39/37 37/40/38
f 39/41/39 41/42/40 40/43/41
f 3/2/2 10/44/10 11/45/12
f 3/2/2 11/45/12 2/3/3
f 2/3/3 11/45/12 4/4/4
f 5/5/5 19/46/19 8/8/8
f 5/5/5 8/8/8 2/3/3
f 2/3/3 8/8/8 1/1/1
f 6/47/6 13/13/13 14/15/15
f 6/6/6 14/48/15 3/2/2
f 3/2/2 14/48/15 10/44/10
f 7/49/7 16/16/16 17/18/18
f 7/7/7 17/50/18 6/6/6
f 6/47/6 17/18/18 13/13/13
f 8/8/8 19/46/19 20/51/21
f 8/8/8 20/51/21 7/7/7
f 7/49/7 20/52/21 16/16/16
f 9/53/9 39/41/39 26/28/26
f 9/53/9 26/28/26 5/54/5
f 5/54/5 26/28/26 19/19/19
f 12/55/11 27/29/27 22/23/22
f 12/55/11 22/23/22 11/56/12
f 11/56/12 22/23/22 4/22/4
f 15/57/14 30/58/30 23/25/23
f 15/57/14 23/25/23 14/59/15
f 14/59/15 23/25/23 10/10/10
f 18/17/17 33/60/33 24/26/24
f 18/17/17 24/26/24 17/18/18
f 17/18/18 24/26/24 13/13/13
f 21/20/20 36/38/36 25/61/25
f 21/20/20 25/61/25 20/21/21
f 20/52/21 25/27/25 16/16/16
f 22/23/22 27/29/27 28/31/29
f 22/23/22 28/31/29 9/24/9
f 9/24/9 28/31/29 39/62/39
f 23/25/23 30/58/30 31/63/32
f 23/25/23 31/63/32 12/11/11
f 12/55/11 31/64/32 27/29/27
f 24/26/24 33/60/33 34/65/35
f 24/26/24 34/65/35 15/14/14
f 15/66/14 34/37/35 30/32/30
f 25/61/25 36/38/36 37/40/38
f 25/27/25 37/67/38 18/17/17
f 18/17/17 37/67/38 33/60/33
f 26/28/26 39/41/39 40/43/41
f 26/28/26 40/43/41 21/20/20
f 21/20/20 40/43/41 36/38/36
f 29/30/28 42/68/42 41/69/40
f 29/30/28 41/69/40 28/31/29
f 28/31/29 41/69/40 39/62/39
f 32/33/31 42/70/42 29/71/28
f 32/33/31 29/71/28 31/34/32
f 31/64/32 29/30/28 27/29/27
f 35/36/34 42/70/42 32/33/31
f 35/36/34 32/33/31 34/37/35
f 34/37/35 32/33/31 30/32/30
f 38/72/37 42/70/42 35/36/34
f 38/72/37 35/36/34 37/73/38
f 37/73/38 35/36/34 33/35/33
f 41/42/40 42/74/42 38/39/37
f 41/42/40 38/39/37 40/43/41
f 40/43/41 38/39/37 36/38/36
