# Blender v2.78 (sub 0) OBJ File: ''
# www.blender.org
o Torch_Cylinder
v 1.866014 0.323204 -0.090295
v 0.291405 1.619978 -0.066181
v 1.872313 0.330494 -0.071004
v 0.297704 1.627268 -0.046889
v 1.876116 0.334724 -0.050204
v 0.301507 1.631498 -0.026089
v 1.877275 0.335732 -0.028695
v 0.302666 1.632507 -0.004580
v 1.875748 0.333480 -0.007303
v 0.301139 1.630254 0.016811
v 1.871592 0.328052 0.013148
v 0.296982 1.624827 0.037263
v 1.864966 0.319659 0.031874
v 0.290357 1.616434 0.055989
v 1.856127 0.308623 0.048155
v 0.281518 1.605398 0.072270
v 1.845412 0.295368 0.061365
v 0.270803 1.592142 0.085479
v 1.833236 0.280403 0.070996
v 0.258626 1.577177 0.095110
v 1.820063 0.264303 0.076678
v 0.245454 1.561077 0.100793
v 1.806403 0.247687 0.078194
v 0.231794 1.544462 0.102308
v 1.792778 0.231194 0.075484
v 0.218169 1.527968 0.099598
v 1.779713 0.215457 0.068653
v 0.205104 1.512232 0.092767
v 1.767711 0.201082 0.057963
v 0.193102 1.497856 0.082078
v 1.757231 0.188620 0.043825
v 0.182622 1.485394 0.067940
v 1.748677 0.178550 0.026783
v 0.174068 1.475324 0.050898
v 1.742378 0.171260 0.007491
v 0.167769 1.468035 0.031606
v 1.738575 0.167030 -0.013309
v 0.163966 1.463804 0.010806
v 1.737416 0.166021 -0.034818
v 0.162807 1.462796 -0.010703
v 1.738943 0.168274 -0.056209
v 0.164334 1.465049 -0.032094
v 1.743100 0.173701 -0.076660
v 0.168491 1.470476 -0.052546
v 1.749725 0.182094 -0.095386
v 0.175116 1.478869 -0.071272
v 1.758565 0.193130 -0.111667
v 0.183956 1.489905 -0.087552
v 1.769279 0.206386 -0.124877
v 0.194670 1.503160 -0.100762
v 1.781456 0.221351 -0.134508
v 0.206847 1.518125 -0.110393
v 1.794628 0.237451 -0.140190
v 0.220019 1.534225 -0.116076
v 1.808289 0.254067 -0.141706
v 0.233680 1.550841 -0.117591
v 1.821913 0.270560 -0.138996
v 0.247304 1.567334 -0.114881
v 1.834978 0.286297 -0.132165
v 0.260369 1.583071 -0.108050
v 1.846981 0.300672 -0.121475
v 0.272372 1.597447 -0.097360
v 1.857460 0.313134 -0.107337
v 0.282851 1.609909 -0.083223
vn 0.5647 0.6940 -0.4466
vn 0.6108 0.7466 -0.2635
vn 0.6335 0.7705 -0.0703
vn 0.6318 0.7649 0.1257
vn 0.6059 0.7298 0.3168
vn 0.5566 0.6667 0.4957
vn 0.4860 0.5779 0.6556
vn 0.3967 0.4670 0.7903
vn 0.2921 0.3381 0.8946
vn 0.1763 0.1962 0.9646
vn 0.0538 0.0468 0.9975
vn -0.0708 -0.1045 0.9920
vn -0.1927 -0.2517 0.9484
vn -0.3072 -0.3892 0.8684
vn -0.4099 -0.5118 0.7550
vn -0.4969 -0.6147 0.6126
vn -0.5647 -0.6940 0.4466
vn -0.6108 -0.7466 0.2635
vn -0.6335 -0.7705 0.0703
vn -0.6318 -0.7649 -0.1257
vn -0.6059 -0.7298 -0.3168
vn -0.5566 -0.6667 -0.4957
vn -0.4860 -0.5779 -0.6556
vn -0.3967 -0.4670 -0.7903
vn -0.2921 -0.3381 -0.8946
vn -0.1763 -0.1962 -0.9646
vn -0.0538 -0.0468 -0.9975
vn 0.0708 0.1045 -0.9920
vn 0.1927 0.2517 -0.9484
vn 0.3072 0.3892 -0.8684
vn -0.7719 0.6357 0.0118
vn 0.4099 0.5118 -0.7550
vn 0.4969 0.6147 -0.6126
vn 0.7719 -0.6357 -0.0118
vn -0.7719 0.6357 0.0119
vn -0.7719 0.6357 0.0117
vn -0.7718 0.6357 0.0118
vn 0.7719 -0.6356 -0.0118
vn 0.7718 -0.6357 -0.0118
s off
f 1//1 4//1 3//1
f 4//2 5//2 3//2
f 6//3 7//3 5//3
f 8//4 9//4 7//4
f 10//5 11//5 9//5
f 12//6 13//6 11//6
f 14//7 15//7 13//7
f 16//8 17//8 15//8
f 17//9 20//9 19//9
f 20//10 21//10 19//10
f 22//11 23//11 21//11
f 24//12 25//12 23//12
f 25//13 28//13 27//13
f 28//14 29//14 27//14
f 30//15 31//15 29//15
f 32//16 33//16 31//16
f 34//17 35//17 33//17
f 35//18 38//18 37//18
f 38//19 39//19 37//19
f 40//20 41//20 39//20
f 42//21 43//21 41//21
f 44//22 45//22 43//22
f 46//23 47//23 45//23
f 47//24 50//24 49//24
f 50//25 51//25 49//25
f 52//26 53//26 51//26
f 53//27 56//27 55//27
f 56//28 57//28 55//28
f 58//29 59//29 57//29
f 60//30 61//30 59//30
f 30//31 22//31 6//31
f 61//32 64//32 63//32
f 64//33 1//33 63//33
f 31//34 55//34 63//34
f 1//1 2//1 4//1
f 4//2 6//2 5//2
f 6//3 8//3 7//3
f 8//4 10//4 9//4
f 10//5 12//5 11//5
f 12//6 14//6 13//6
f 14//7 16//7 15//7
f 16//8 18//8 17//8
f 17//9 18//9 20//9
f 20//10 22//10 21//10
f 22//11 24//11 23//11
f 24//12 26//12 25//12
f 25//13 26//13 28//13
f 28//14 30//14 29//14
f 30//15 32//15 31//15
f 32//16 34//16 33//16
f 34//17 36//17 35//17
f 35//18 36//18 38//18
f 38//19 40//19 39//19
f 40//20 42//20 41//20
f 42//21 44//21 43//21
f 44//22 46//22 45//22
f 46//23 48//23 47//23
f 47//24 48//24 50//24
f 50//25 52//25 51//25
f 52//26 54//26 53//26
f 53//27 54//27 56//27
f 56//28 58//28 57//28
f 58//29 60//29 59//29
f 60//30 62//30 61//30
f 6//31 4//31 2//31
f 2//31 64//31 62//31
f 62//35 60//35 58//35
f 58//31 56//31 54//31
f 54//31 52//31 50//31
f 50//31 48//31 54//31
f 46//31 44//31 38//31
f 42//31 40//31 38//31
f 38//31 36//31 30//31
f 34//36 32//36 30//36
f 30//35 28//35 26//35
f 26//31 24//31 30//31
f 22//31 20//31 18//31
f 18//31 16//31 14//31
f 14//31 12//31 10//31
f 10//37 8//37 6//37
f 6//31 2//31 62//31
f 62//31 58//31 54//31
f 54//31 48//31 46//31
f 44//31 42//31 38//31
f 36//31 34//31 30//31
f 30//31 24//31 22//31
f 22//31 18//31 6//31
f 14//31 10//31 6//31
f 6//31 62//31 54//31
f 54//31 46//31 6//31
f 38//31 30//31 6//31
f 18//31 14//31 6//31
f 6//31 46//31 38//31
f 61//32 62//32 64//32
f 64//33 2//33 1//33
f 63//34 1//34 7//34
f 3//38 5//38 7//38
f 7//39 9//39 11//39
f 11//38 13//38 7//38
f 15//38 17//38 19//38
f 19//34 21//34 15//34
f 23//34 25//34 27//34
f 27//34 29//34 23//34
f 31//38 33//38 35//38
f 35//34 37//34 31//34
f 39//34 41//34 47//34
f 43//38 45//38 47//38
f 47//34 49//34 55//34
f 51//34 53//34 55//34
f 55//34 57//34 59//34
f 59//34 61//34 55//34
f 1//39 3//39 7//39
f 7//34 13//34 15//34
f 15//34 21//34 23//34
f 23//34 29//34 31//34
f 31//38 37//38 39//38
f 41//34 43//34 47//34
f 49//34 51//34 55//34
f 55//34 61//34 63//34
f 63//34 7//34 31//34
f 15//34 23//34 31//34
f 31//34 39//34 47//34
f 47//34 55//34 31//34
f 7//34 15//34 31//34
