# Blender v2.78 (sub 0) OBJ File: 'Raindrop.blend'
# www.blender.org
o Icosphere_Icosphere.001
v 0.028982 -0.446689 0.002241
v 0.162186 -0.220167 0.101102
v -0.016954 -0.214946 0.153372
v -0.130546 -0.213544 -0.004493
v -0.022775 -0.217734 -0.154689
v 0.157900 -0.221815 -0.089065
v 0.116119 0.221829 0.251841
v -0.178633 0.231654 0.147255
v -0.179645 0.232839 -0.163283
v 0.108711 0.224059 -0.249576
v 0.294966 0.217196 0.009030
v 0.034081 0.472824 -0.003519
v 0.003452 -0.374590 0.086541
v 0.102841 -0.377392 0.057533
v 0.078655 -0.244659 0.145340
v 0.178678 -0.248622 0.006909
v 0.100336 -0.378760 -0.048258
v -0.060062 -0.374257 -0.001331
v -0.088830 -0.240953 0.085099
v -0.000267 -0.376823 -0.084735
v -0.091909 -0.242619 -0.091075
v 0.072612 -0.247350 -0.139439
v 0.219416 -0.026123 0.068057
v 0.217014 -0.026388 -0.053703
v 0.034104 -0.020262 0.198018
v 0.149151 -0.023797 0.164459
v -0.154895 -0.015443 0.055290
v -0.082676 -0.017063 0.156272
v -0.086916 -0.018044 -0.164063
v -0.156237 -0.015816 -0.067652
v 0.143141 -0.024631 -0.155919
v 0.027598 -0.021443 -0.197993
v 0.231353 0.247337 0.149291
v -0.040864 0.256240 0.228641
v -0.209595 0.262105 -0.009145
v -0.045129 0.258341 -0.237220
v 0.226905 0.249081 -0.137788
v 0.080678 0.392258 0.142328
v 0.183629 0.389947 0.002979
v -0.087277 0.398703 0.082001
v -0.087603 0.400385 -0.095748
v 0.078619 0.395131 -0.144903
vt 0.3058 0.6377
vt 0.2456 0.5671
vt 0.3236 0.5432
vt 0.1809 0.4342
vt 0.1617 0.4995
vt 0.9223 0.6477
vt 0.8458 0.5992
vt 0.8968 0.5659
vt 0.9719 0.5654
vt 0.6049 0.0000
vt 0.6587 0.0798
vt 0.5825 0.0758
vt 0.3219 1.0000
vt 0.2540 0.9711
vt 0.3219 0.8842
vt 0.3216 0.3910
vt 0.2532 0.4254
vt 0.2574 0.2287
vt 0.8647 0.4159
vt 0.8108 0.4666
vt 0.7917 0.2588
vt 1.0000 0.4147
vt 0.9407 0.4316
vt 0.9693 0.2328
vt 0.5524 0.2224
vt 0.6303 0.2083
vt 0.5726 0.4043
vt 0.1028 0.3079
vt 0.1671 0.2565
vt 0.3401 0.2349
vt 0.8824 0.2339
vt 0.2637 0.8842
vt 0.2540 0.7577
vt 0.3408 0.7965
vt 0.4775 0.3808
vt 0.3719 0.9701
vt 0.3882 0.8457
vt 0.5251 0.9460
vt 0.2540 0.7203
vt 0.2531 0.8621
vt 0.1081 0.7777
vt 0.6474 0.7644
vt 0.6738 0.6489
vt 0.7887 0.6946
vt 0.8062 0.9603
vt 0.7265 0.8612
vt 0.8803 0.8073
vt 0.4076 0.7100
vt 0.5107 0.6489
vt 0.5457 0.7967
vt 0.6474 0.7482
vt 0.6474 0.8844
vt 0.9148 0.9443
vt 0.9148 0.6695
vt 0.0201 0.7096
vt 0.0000 0.8456
vt 0.1659 0.6377
vt 0.1089 0.9335
vt 0.2540 0.9934
vt 0.4833 0.6347
vt 0.3719 0.5734
vt 0.6118 0.6351
vt 0.6601 0.4097
vt 0.6893 0.6489
vt 0.3408 0.6377
vt 0.9187 0.0038
vt 1.0000 0.0000
vt 0.7946 0.0038
vt 0.6893 0.0679
vt 0.2736 0.0000
vt 0.3719 0.0431
vt 0.1633 0.0292
vt 0.0600 0.0663
vt 0.0000 0.1578
vt 0.6893 0.2301
vt 0.7330 0.2978
vt 0.3719 0.4351
vt 0.4128 0.3482
vt 0.4938 0.1756
vt 0.5259 0.0485
vn 0.1752 -0.7214 0.6700
vn 0.8718 -0.4053 0.2751
vn -0.5831 -0.6961 0.4188
vn -0.5722 -0.7225 -0.3880
vn 0.2236 -0.7218 -0.6550
vn 0.9421 -0.2375 0.2367
vn 0.0115 -0.2264 0.9740
vn -0.9085 -0.2191 0.3560
vn -0.6121 -0.2321 -0.7560
vn 0.5453 -0.2323 -0.8054
vn 0.7991 -0.1359 0.5857
vn -0.3370 -0.1256 0.9331
vn -0.9921 -0.1253 0.0112
vn -0.2852 -0.1361 -0.9488
vn 0.8017 -0.1372 -0.5818
vn 0.4890 0.5413 0.6841
vn -0.4979 0.5380 0.6802
vn -0.7990 0.5431 -0.2584
vn 0.0495 0.5276 -0.8481
vn 0.8146 0.5157 -0.2656
vn 0.4716 0.8270 -0.3059
vn 0.6426 0.6313 -0.4342
vn 0.5327 0.5079 -0.6769
vn -0.1231 0.8529 -0.5074
vn -0.1930 0.6628 -0.7235
vn -0.4814 0.5421 -0.6888
vn -0.5166 0.8562 0.0090
vn -0.7475 0.6642 0.0077
vn -0.7994 0.5400 0.2634
vn -0.1525 0.8437 0.5148
vn -0.2313 0.6602 0.7146
vn -0.0061 0.5397 0.8418
vn 0.4490 0.8351 0.3179
vn 0.6115 0.6570 0.4409
vn 0.8091 0.5304 0.2530
vn 0.8801 -0.1672 -0.4443
vn 0.7918 -0.2042 -0.5757
vn 0.6959 -0.1667 -0.6985
vn -0.1159 -0.1674 -0.9790
vn -0.2836 -0.2051 -0.9367
vn -0.4511 -0.1640 -0.8773
vn -0.9751 -0.1535 -0.1603
vn -0.9816 -0.1908 0.0113
vn -0.9745 -0.1542 0.1629
vn -0.4819 -0.1547 0.8625
vn -0.3350 -0.1930 0.9223
vn -0.1778 -0.1558 0.9717
vn 0.6758 -0.1647 0.7184
vn 0.7883 -0.2066 0.5796
vn 0.8836 -0.1684 0.4369
vn 0.3198 -0.2948 -0.9005
vn 0.3327 -0.1739 -0.9269
vn 0.0820 -0.2347 -0.9686
vn -0.7809 -0.2869 -0.5549
vn -0.8022 -0.1684 -0.5729
vn -0.9156 -0.2253 -0.3329
vn -0.7826 -0.2818 0.5551
vn -0.8041 -0.1599 0.5725
vn -0.6289 -0.2198 0.7458
vn 0.2595 -0.2925 0.9204
vn 0.2712 -0.1686 0.9476
vn 0.5077 -0.2338 0.8292
vn 0.9536 -0.3005 -0.0182
vn 0.9844 -0.1750 -0.0190
vn 0.9346 -0.2342 -0.2678
vn 0.5520 -0.3936 -0.7351
vn 0.2856 -0.5049 -0.8145
vn 0.0224 -0.3998 -0.9163
vn -0.5374 -0.4020 -0.7413
vn -0.7080 -0.5067 -0.4920
vn -0.8819 -0.3919 -0.2619
vn -0.8778 -0.3792 0.2927
vn -0.7098 -0.4846 0.5112
vn -0.5612 -0.3796 0.7355
vn 0.8683 -0.3961 -0.2986
vn 0.8592 -0.5114 -0.0137
vn 0.6869 -0.7267 -0.0069
vn -0.0441 -0.3906 0.9195
vn 0.2281 -0.5079 0.8306
vn 0.5178 -0.4044 0.7539
s off
f 1/1/1 14/2/1 13/3/1
f 2/4/2 14/2/2 16/5/2
f 1/6/3 13/7/3 18/8/3
f 1/6/4 18/8/4 20/9/4
f 1/10/5 20/11/5 17/12/5
f 2/13/6 16/14/6 23/15/6
f 3/16/7 15/17/7 25/18/7
f 4/19/8 19/20/8 27/21/8
f 5/22/9 21/23/9 29/24/9
f 6/25/10 22/26/10 31/27/10
f 2/4/11 23/28/11 26/29/11
f 3/16/12 25/18/12 28/30/12
f 4/19/13 27/21/13 30/31/13
f 5/32/14 29/33/14 32/34/14
f 6/25/15 31/27/15 24/35/15
f 7/36/16 33/37/16 38/38/16
f 8/39/17 34/40/17 40/41/17
f 9/42/18 35/43/18 41/44/18
f 10/45/19 36/46/19 42/47/19
f 11/48/20 37/49/20 39/50/20
f 39/50/21 42/51/21 12/52/21
f 39/50/22 37/49/22 42/51/22
f 37/53/23 10/45/23 42/47/23
f 42/47/24 41/44/24 12/54/24
f 42/47/25 36/46/25 41/44/25
f 36/46/26 9/42/26 41/44/26
f 41/55/27 40/41/27 12/56/27
f 41/55/28 35/57/28 40/41/28
f 35/57/29 8/39/29 40/41/29
f 40/41/30 38/58/30 12/56/30
f 40/41/31 34/40/31 38/58/31
f 34/40/32 7/59/32 38/58/32
f 38/38/33 39/50/33 12/52/33
f 38/38/34 33/37/34 39/50/34
f 33/37/35 11/48/35 39/50/35
f 24/35/36 37/60/36 11/61/36
f 24/35/37 31/27/37 37/60/37
f 31/27/38 10/62/38 37/60/38
f 32/63/39 36/64/39 10/62/39
f 32/34/40 29/33/40 36/65/40
f 29/24/41 9/66/41 36/67/41
f 30/31/42 35/68/42 9/66/42
f 30/31/43 27/21/43 35/68/43
f 27/21/44 8/69/44 35/68/44
f 28/30/45 34/70/45 8/71/45
f 28/30/46 25/18/46 34/70/46
f 25/18/47 7/72/47 34/70/47
f 26/29/48 33/73/48 7/72/48
f 26/29/49 23/28/49 33/73/49
f 23/28/50 11/74/50 33/73/50
f 31/27/51 32/63/51 10/62/51
f 31/27/52 22/26/52 32/63/52
f 22/26/53 5/75/53 32/63/53
f 29/24/54 30/31/54 9/66/54
f 29/24/55 21/23/55 30/31/55
f 21/23/56 4/19/56 30/31/56
f 27/21/57 28/76/57 8/69/57
f 27/21/58 19/20/58 28/76/58
f 19/77/59 3/16/59 28/30/59
f 25/18/60 26/29/60 7/72/60
f 25/18/61 15/17/61 26/29/61
f 15/17/62 2/4/62 26/29/62
f 23/78/63 24/35/63 11/61/63
f 23/78/64 16/79/64 24/35/64
f 16/79/65 6/25/65 24/35/65
f 17/12/66 22/26/66 6/25/66
f 17/12/67 20/11/67 22/26/67
f 20/11/68 5/75/68 22/26/68
f 20/9/69 21/23/69 5/22/69
f 20/9/70 18/8/70 21/23/70
f 18/8/71 4/19/71 21/23/71
f 18/8/72 19/20/72 4/19/72
f 18/8/73 13/7/73 19/20/73
f 13/3/74 3/16/74 19/77/74
f 16/79/75 17/12/75 6/25/75
f 16/79/76 14/80/76 17/12/76
f 14/80/77 1/10/77 17/12/77
f 13/3/78 15/17/78 3/16/78
f 13/3/79 14/2/79 15/17/79
f 14/2/80 2/4/80 15/17/80
